<svg width="22" height="21" viewBox="0 0 22 21" fill="none" xmlns="http://www.w3.org/2000/svg">
<g clip-path="url(#clip0)">
<path d="M0 20.9524C0 13.9683 0 6.98413 0 0C7.31514 0 14.6849 0 22 0C22 6.98413 22 13.9683 22 20.9524C14.6849 20.9524 7.31514 20.9524 0 20.9524ZM21.072 20.046C21.072 13.6484 21.072 7.30401 21.072 0.906337C14.3573 0.906337 7.64268 0.906337 0.92804 0.906337C0.92804 7.30401 0.92804 13.6484 0.92804 20.046C7.64268 20.046 14.3573 20.046 21.072 20.046Z" fill="#D291FF"/>
<path d="M21.072 20.046C14.3573 20.046 7.64268 20.046 0.92804 20.046C0.92804 13.6483 0.92804 7.30392 0.92804 0.90625C7.64268 0.90625 14.3573 0.90625 21.072 0.90625C21.072 7.30392 21.072 13.6483 21.072 20.046ZM7.64268 4.79817C7.31514 4.79817 7.04218 4.79817 6.71464 4.79817C6.60546 4.79817 6.60546 4.85148 6.60546 4.9048C6.55087 5.17137 6.55087 5.38462 6.49628 5.65119C6.00496 7.51718 5.45906 9.32985 4.91315 11.1425C4.58561 12.2621 4.25806 13.3284 3.93052 14.448C3.87593 14.6079 3.87593 14.6612 4.09429 14.6612C4.47643 14.6612 4.91315 14.6612 5.29529 14.6612C5.40447 14.6612 5.45906 14.6079 5.51365 14.5013C5.73201 13.6483 5.95037 12.7953 6.16874 11.9956C6.16874 11.8889 6.22333 11.8889 6.33251 11.8889C7.26055 11.8889 8.134 11.8889 9.06204 11.8889C9.17122 11.8889 9.17122 11.8889 9.22581 11.9956C9.44417 12.8486 9.71712 13.6483 9.93548 14.5013C9.99008 14.6612 9.99008 14.6612 10.1538 14.6612C10.5906 14.6612 11.0819 14.6612 11.5186 14.6612C11.6824 14.6612 11.6824 14.6612 11.6278 14.5013C11.464 13.9682 11.3002 13.3817 11.1365 12.8486C10.3722 10.2362 9.55335 7.62381 8.78908 5.01142C8.6799 4.79817 8.6799 4.79817 8.51613 4.79817C8.24318 4.79817 7.91563 4.79817 7.64268 4.79817ZM13.7022 11.3558C13.7568 11.3558 13.8114 11.3558 13.8114 11.3558C14.3573 11.3558 14.9032 11.3558 15.4491 11.3558C16.1588 11.3558 16.8139 11.3025 17.5236 11.3025C17.6873 11.3025 17.6873 11.2492 17.7419 11.0892C17.8511 10.4494 17.8511 9.86299 17.6873 9.22323C17.5236 8.63677 17.2506 8.10363 16.7047 7.73044C15.995 7.25061 15.2308 7.14398 14.4119 7.35724C13.5385 7.57049 12.938 8.10363 12.5558 8.85003C12.2283 9.43648 12.1191 10.0229 12.0645 10.6627C12.0099 11.4624 12.0645 12.2088 12.3921 12.9552C12.7742 13.8082 13.3747 14.448 14.3027 14.6612C14.8486 14.8212 15.3945 14.8212 15.9404 14.7679C16.3772 14.7146 16.7593 14.6612 17.1414 14.5013C17.2506 14.448 17.3052 14.3947 17.3052 14.2347C17.3052 13.9149 17.3052 13.5417 17.3052 13.2218C17.3052 13.1151 17.3052 13.0618 17.1414 13.1151C16.5409 13.3284 15.9404 13.435 15.34 13.3284C14.139 13.2218 13.7022 12.3154 13.7022 11.3558Z" fill="#1F0040"/>
<path d="M7.64267 4.79834C7.91563 4.79834 8.18858 4.79834 8.51612 4.79834C8.6799 4.79834 8.6799 4.79834 8.73449 4.95828C9.49875 7.57066 10.3176 10.183 11.0819 12.7954C11.2457 13.3286 11.4094 13.915 11.5732 14.4482C11.6278 14.6081 11.6278 14.6081 11.464 14.6081C11.0273 14.6081 10.536 14.6081 10.0993 14.6081C9.93548 14.6081 9.93548 14.6081 9.88089 14.4482C9.66253 13.5951 9.38957 12.7954 9.17121 11.9424C9.17121 11.8891 9.11662 11.8358 9.00744 11.8358C8.0794 11.8358 7.20595 11.8358 6.27791 11.8358C6.16873 11.8358 6.16873 11.8358 6.11414 11.9424C5.89578 12.7954 5.67741 13.6485 5.45905 14.4482C5.40446 14.5548 5.40446 14.6081 5.24069 14.6081C4.85856 14.6081 4.42183 14.6081 4.0397 14.6081C3.82133 14.6081 3.82133 14.6081 3.87592 14.3948C4.25806 13.3286 4.5856 12.209 4.91315 11.1427C5.45905 9.33002 6.00496 7.51735 6.49627 5.70468C6.55086 5.49142 6.55086 5.22485 6.60545 4.95828C6.60545 4.85165 6.66004 4.85165 6.71463 4.85165C7.04218 4.79834 7.36972 4.79834 7.64267 4.79834ZM8.78908 10.3963C8.40694 9.01014 8.02481 7.62398 7.69727 6.23782C7.36972 7.62398 6.98759 9.01014 6.60545 10.3963C7.31513 10.3963 8.0794 10.3963 8.78908 10.3963Z" fill="#D291FF"/>
<path d="M13.7022 11.3559C13.7022 12.3688 14.139 13.2219 15.34 13.3818C15.9404 13.4351 16.5955 13.3818 17.1414 13.1685C17.2506 13.1152 17.3052 13.1152 17.3052 13.2752C17.3052 13.5951 17.3052 13.9683 17.3052 14.2881C17.3052 14.3948 17.2506 14.5014 17.1414 14.5547C16.7593 14.7147 16.3772 14.8213 15.9404 14.8213C15.3945 14.8746 14.8486 14.8746 14.3027 14.7147C13.3747 14.4481 12.7196 13.8616 12.3921 13.0086C12.0645 12.2622 12.0099 11.5158 12.0645 10.7161C12.1191 10.0763 12.2829 9.48989 12.5558 8.90343C12.938 8.15704 13.5385 7.6239 14.4119 7.41064C15.2308 7.2507 15.995 7.30401 16.7047 7.78384C17.2506 8.15704 17.5236 8.69018 17.6873 9.27663C17.8511 9.9164 17.8511 10.5028 17.7419 11.1426C17.7419 11.3026 17.6873 11.3026 17.5236 11.3559C16.8139 11.3559 16.1588 11.4092 15.4491 11.4092C14.9032 11.4092 14.3573 11.4092 13.8114 11.4092C13.8114 11.3559 13.7568 11.3559 13.7022 11.3559ZM13.7022 10.0763C13.7568 10.0763 13.7568 10.1297 13.7022 10.0763C14.5211 10.0763 15.34 10.0763 16.1042 10.0763C16.2134 10.0763 16.268 10.023 16.268 9.9164C16.268 9.64983 16.2134 9.43657 16.1042 9.17C15.7221 8.31698 14.7395 8.37029 14.3027 8.7968C13.9206 9.17 13.8114 9.59651 13.7022 10.0763Z" fill="#D291FF"/>
<path d="M8.78908 10.3963C8.0794 10.3963 7.31513 10.3963 6.60545 10.3963C6.98759 9.01012 7.31513 7.62396 7.69727 6.23779C8.02481 7.62396 8.40694 9.01012 8.78908 10.3963Z" fill="#1F0040"/>
<path d="M13.7022 10.0763C13.7568 9.59646 13.9206 9.16995 14.2481 8.79675C14.6849 8.42356 15.7221 8.37024 16.0496 9.16995C16.1588 9.38321 16.2134 9.64978 16.2134 9.91635C16.2134 10.023 16.2134 10.0763 16.0496 10.0763C15.34 10.0763 14.5211 10.1296 13.7022 10.0763C13.7568 10.0763 13.7568 10.1296 13.7022 10.0763Z" fill="#1F0040"/>
</g>
<defs>
<clipPath id="clip0">
<rect width="22" height="20.9524" fill="white"/>
</clipPath>
</defs>
</svg>
