<svg width="22" height="22" viewBox="0 0 22 22" fill="none" xmlns="http://www.w3.org/2000/svg">
<g clip-path="url(#clip0)">
<path d="M0.927979 0.927979H21.1265V20.5806H0.927979V0.927979Z" fill="#261300"/>
<path d="M0 0V21.4541H22V0H0ZM0.92804 0.92804H21.1266V20.5806H0.92804V0.92804Z" fill="#FF7C00"/>
<path d="M7.64281 12.1736L6.93313 14.9032C6.93313 14.9578 6.87854 15.0123 6.76936 15.0123H5.40459C5.29541 15.0123 5.29541 14.9578 5.29541 14.8486L7.91576 5.73195C7.97035 5.56818 7.97035 5.4044 8.02494 4.96768C8.02494 4.91309 8.07953 4.91309 8.13412 4.91309H10.0448C10.0994 4.91309 10.154 4.91309 10.154 5.02227L13.0473 14.9032C13.0473 14.9578 13.0473 15.0123 12.9927 15.0123H11.4641C11.4096 15.0123 11.355 15.0123 11.3004 14.9032L10.5361 12.119H7.64281V12.1736ZM10.2086 10.6451C9.93561 9.60788 9.33511 7.42426 9.11675 6.33244C8.89839 7.42426 8.46166 9.22575 8.07953 10.6451H10.2086ZM14.3029 5.56818C14.3029 4.96768 14.7396 4.64014 15.2309 4.64014C15.7768 4.64014 16.1589 5.02227 16.1589 5.56818C16.1589 6.16867 15.7768 6.49622 15.2309 6.49622C14.685 6.49622 14.3029 6.16867 14.3029 5.56818ZM14.412 7.64262C14.412 7.58803 14.4666 7.53344 14.5212 7.53344H15.9406C15.9952 7.53344 16.0498 7.58803 16.0498 7.64262V14.9032C16.0498 14.9578 16.0498 15.0123 15.9406 15.0123H14.5212C14.412 15.0123 14.412 14.9578 14.412 14.9032V7.64262Z" fill="#FF7C00"/>
</g>
<defs>
<clipPath id="clip0">
<rect width="22" height="21.4541" fill="white"/>
</clipPath>
</defs>
</svg>
