<svg width="73" height="34" viewBox="0 0 73 34" fill="none" xmlns="http://www.w3.org/2000/svg">
<path d="M28.1672 14.1218H26.6783V5.72548C26.6769 4.62638 26.3574 3.551 25.7581 2.62825C25.1588 1.7055 24.305 0.974541 23.2993 0.522988C22.2936 0.0714351 21.1784 -0.081547 20.0876 0.0823805C18.9968 0.246308 17.9766 0.720189 17.1493 1.44722C16.1006 0.515124 14.7444 0 13.3392 0C11.9339 0 10.5777 0.515124 9.52903 1.44722C8.7017 0.720189 7.68149 0.246308 6.59068 0.0823805C5.49987 -0.081547 4.38475 0.0714351 3.379 0.522988C2.37326 0.974541 1.51955 1.7055 0.920228 2.62825C0.320905 3.551 0.0013954 4.62638 0 5.72548L0 34H28.3667V26.74C30.0294 26.6892 31.6053 25.9887 32.754 24.7899C33.9027 23.5911 34.5318 21.9902 34.5056 20.333C34.4794 18.6758 33.7999 17.0954 32.614 15.9332C31.428 14.7711 29.8307 14.1204 28.1672 14.1218ZM28.1672 22.886H24.4956V30.143H3.87117V5.72548C3.87117 5.23211 4.06788 4.75895 4.41803 4.41009C4.76818 4.06123 5.24308 3.86524 5.73826 3.86524C6.23345 3.86524 6.70835 4.06123 7.0585 4.41009C7.40865 4.75895 7.60536 5.23211 7.60536 5.72548V12.8994C7.60536 13.4109 7.80928 13.9014 8.17228 14.2631C8.53527 14.6247 9.02759 14.8279 9.54094 14.8279C10.0543 14.8279 10.5466 14.6247 10.9096 14.2631C11.2726 13.9014 11.4765 13.4109 11.4765 12.8994V5.72548C11.4665 5.47514 11.5073 5.22535 11.5965 4.99111C11.6858 4.75687 11.8216 4.54301 11.9958 4.36234C12.17 4.18168 12.3791 4.03794 12.6104 3.93976C12.8418 3.84157 13.0907 3.79096 13.3421 3.79096C13.5936 3.79096 13.8425 3.84157 14.0738 3.93976C14.3052 4.03794 14.5142 4.18168 14.6885 4.36234C14.8627 4.54301 14.9985 4.75687 15.0877 4.99111C15.177 5.22535 15.2178 5.47514 15.2077 5.72548V12.8994C15.2077 13.4109 15.4117 13.9014 15.7747 14.2631C16.1376 14.6247 16.63 14.8279 17.1433 14.8279C17.6567 14.8279 18.149 14.6247 18.512 14.2631C18.875 13.9014 19.0789 13.4109 19.0789 12.8994V5.72548C19.0789 5.23211 19.2756 4.75895 19.6258 4.41009C19.9759 4.06123 20.4508 3.86524 20.946 3.86524C21.4412 3.86524 21.9161 4.06123 22.2662 4.41009C22.6164 4.75895 22.8131 5.23211 22.8131 5.72548V17.9788H28.1732C28.8263 17.9788 29.4527 18.2373 29.9145 18.6974C30.3764 19.1576 30.6358 19.7816 30.6358 20.4324C30.6358 21.0831 30.3764 21.7072 29.9145 22.1674C29.4527 22.6275 28.8263 22.886 28.1732 22.886H28.1672Z" fill="black"/>
<path d="M37.6248 20.4324C37.6278 22.0732 38.2711 23.6487 39.4185 24.8257C40.566 26.0027 42.1278 26.6892 43.774 26.74V34H72.1407V5.72548C72.1393 4.62638 71.8198 3.551 71.2205 2.62825C70.6211 1.7055 69.7674 0.974539 68.7617 0.522986C67.7559 0.0714329 66.6408 -0.0815491 65.55 0.0823783C64.4592 0.246306 63.439 0.720186 62.6117 1.44721C61.5634 0.520423 60.2105 0.00860596 58.809 0.00860596C57.4075 0.00860596 56.0546 0.520423 55.0063 1.44721C54.179 0.720186 53.1588 0.246306 52.068 0.0823783C50.9771 -0.0815491 49.862 0.0714329 48.8563 0.522986C47.8505 0.974539 46.9968 1.7055 46.3975 2.62825C45.7982 3.551 45.4787 4.62638 45.4773 5.72548V14.1218H43.9884C43.1543 14.1187 42.3278 14.2796 41.5563 14.5952C40.7848 14.9109 40.0833 15.3751 39.4922 15.9614C38.901 16.5476 38.4318 17.2443 38.1113 18.0115C37.7909 18.7787 37.6255 19.6014 37.6248 20.4324ZM41.4959 20.4324C41.4967 19.7819 41.7564 19.1582 42.2181 18.6983C42.6798 18.2383 43.3057 17.9795 43.9586 17.9788H49.3187V5.72548C49.3187 5.23211 49.5154 4.75895 49.8655 4.41009C50.2157 4.06122 50.6906 3.86523 51.1858 3.86523C51.6809 3.86523 52.1558 4.06122 52.506 4.41009C52.8561 4.75895 53.0529 5.23211 53.0529 5.72548V12.8994C53.0529 13.4109 53.2568 13.9014 53.6198 14.2631C53.9828 14.6247 54.4751 14.8279 54.9884 14.8279C55.5018 14.8279 55.9941 14.6247 56.3571 14.2631C56.7201 13.9014 56.924 13.4109 56.924 12.8994V5.72548C56.924 5.23211 57.1207 4.75895 57.4709 4.41009C57.821 4.06122 58.2959 3.86523 58.7911 3.86523C59.2863 3.86523 59.7612 4.06122 60.1114 4.41009C60.4615 4.75895 60.6582 5.23211 60.6582 5.72548V12.8994C60.6582 13.4109 60.8621 13.9014 61.2251 14.2631C61.5881 14.6247 62.0804 14.8279 62.5938 14.8279C63.1071 14.8279 63.5995 14.6247 63.9625 14.2631C64.3255 13.9014 64.5294 13.4109 64.5294 12.8994V5.72548C64.5294 5.23211 64.7261 4.75895 65.0762 4.41009C65.4264 4.06122 65.9013 3.86523 66.3965 3.86523C66.8917 3.86523 67.3666 4.06122 67.7167 4.41009C68.0669 4.75895 68.2636 5.23211 68.2636 5.72548V30.143H47.6451V22.886H43.9586C43.3057 22.8852 42.6798 22.6265 42.2181 22.1665C41.7564 21.7065 41.4967 21.0829 41.4959 20.4324Z" fill="black"/>
</svg>
