<svg width="257" height="147" viewBox="0 0 257 147" fill="none" xmlns="http://www.w3.org/2000/svg">
<g clip-path="url(#clip0)">
<path d="M29.4702 2.62401V23.0978C29.4711 23.2948 29.433 23.49 29.3581 23.6722C29.2832 23.8544 29.173 24.0201 29.0338 24.1596C28.8946 24.2992 28.7292 24.41 28.5471 24.4856C28.3649 24.5611 28.1696 24.6 27.9724 24.6H13.9369C13.74 24.6 13.5449 24.5612 13.363 24.4859C13.181 24.4105 13.0158 24.3 12.8767 24.1608C12.7375 24.0216 12.6273 23.8563 12.5522 23.6745C12.4771 23.4926 12.4387 23.2978 12.4391 23.1011V2.62401C12.44 2.42645 12.4018 2.23067 12.3268 2.04787C12.2518 1.86506 12.1414 1.69883 12.002 1.55868C11.8626 1.41853 11.6968 1.30722 11.5142 1.23112C11.3317 1.15502 11.1359 1.11563 10.938 1.1152H1.49785C1.30016 1.11563 1.10451 1.15505 0.922126 1.23118C0.739739 1.30732 0.574208 1.41868 0.435037 1.55887C0.295866 1.69907 0.185795 1.86533 0.111145 2.04811C0.0364943 2.2309 -0.00126579 2.42661 3.23699e-05 2.62401V59.0007C3.23699e-05 59.3974 0.157837 59.7779 0.438732 60.0583C0.719627 60.3388 1.1006 60.4964 1.49785 60.4964H10.938C11.3356 60.4964 11.7169 60.3389 11.9983 60.0585C12.2797 59.7781 12.4382 59.3977 12.4391 59.0007V38.5138C12.4391 38.3174 12.4779 38.1229 12.5531 37.9415C12.6284 37.76 12.7387 37.5951 12.8778 37.4562C13.0169 37.3173 13.182 37.2072 13.3637 37.132C13.5455 37.0568 13.7402 37.0181 13.9369 37.0181H27.9724C28.1691 37.0181 28.3638 37.0568 28.5456 37.132C28.7273 37.2072 28.8924 37.3173 29.0315 37.4562C29.1706 37.5951 29.2809 37.76 29.3562 37.9415C29.4314 38.1229 29.4702 38.3174 29.4702 38.5138V59.0007C29.4711 59.3977 29.6296 59.7781 29.911 60.0585C30.1924 60.3389 30.5737 60.4964 30.9713 60.4964H40.4016C40.7989 60.4964 41.1798 60.3388 41.4607 60.0583C41.7416 59.7779 41.8994 59.3974 41.8994 59.0007V2.62401C41.9007 2.42661 41.863 2.2309 41.7883 2.04811C41.7137 1.86533 41.6036 1.69907 41.4644 1.55887C41.3252 1.41868 41.1597 1.30732 40.9773 1.23118C40.7949 1.15505 40.5993 1.11563 40.4016 1.1152H30.9713C30.7735 1.11563 30.5776 1.15502 30.3951 1.23112C30.2125 1.30722 30.0468 1.41853 29.9073 1.55868C29.7679 1.69883 29.6575 1.86506 29.5825 2.04787C29.5075 2.23067 29.4693 2.42645 29.4702 2.62401Z" fill="black"/>
<path d="M118.104 46.7893V18.2073C118.104 17.8103 117.946 17.4296 117.666 17.1485C117.385 16.8675 117.004 16.7092 116.606 16.7083H97.2266C96.8284 16.7083 96.4466 16.8663 96.1651 17.1474C95.8836 17.4285 95.7255 17.8098 95.7255 18.2073V26.5484C95.7255 26.9459 95.8836 27.3272 96.1651 27.6083C96.4466 27.8894 96.8284 28.0473 97.2266 28.0473H104.18C104.577 28.0473 104.958 28.2049 105.239 28.4854C105.52 28.7659 105.678 29.1463 105.678 29.543V46.7893C105.678 47.1863 105.52 47.567 105.24 47.848C104.959 48.1291 104.578 48.2874 104.18 48.2882H95.9028C95.7059 48.2878 95.5107 48.3262 95.3286 48.4011C95.1465 48.4761 94.981 48.5862 94.8416 48.7251C94.7022 48.8641 94.5915 49.0291 94.5161 49.2108C94.4406 49.3925 94.4017 49.5872 94.4017 49.7839V59.1123C94.4017 59.3089 94.4406 59.5037 94.5161 59.6854C94.5915 59.8671 94.7022 60.0321 94.8416 60.171C94.981 60.3099 95.1465 60.42 95.3286 60.495C95.5107 60.57 95.7059 60.6084 95.9028 60.6079H127.084C127.482 60.6079 127.863 60.4504 128.143 60.1699C128.424 59.8894 128.582 59.5089 128.582 59.1123V49.7839C128.582 49.3872 128.424 49.0068 128.143 48.7263C127.863 48.4458 127.482 48.2882 127.084 48.2882H119.605C119.207 48.2882 118.825 48.1303 118.544 47.8492C118.262 47.5681 118.104 47.1868 118.104 46.7893Z" fill="black"/>
<path d="M110.306 13.7039C114.35 13.7039 117.628 10.6361 117.628 6.85193C117.628 3.06771 114.35 0 110.306 0C106.263 0 102.985 3.06771 102.985 6.85193C102.985 10.6361 106.263 13.7039 110.306 13.7039Z" fill="black"/>
<path d="M80.8032 46.3465C80.4652 46.2285 80.0963 46.234 79.762 46.3619C79.4276 46.4898 79.1495 46.7319 78.9769 47.0451C77.6006 49.5707 73.6492 51.3977 68.9849 51.3977C63.1809 51.3977 58.4739 48.567 58.4739 45.0771V43.7913C58.4739 43.5916 58.5134 43.3939 58.59 43.2094C58.6667 43.025 58.779 42.8574 58.9205 42.7163C59.0621 42.5753 59.2301 42.4635 59.415 42.3874C59.5999 42.3112 59.798 42.2723 59.998 42.2727H87.6649C87.8649 42.2727 88.0629 42.2333 88.2476 42.1568C88.4324 42.0803 88.6002 41.9681 88.7414 41.8267C88.8827 41.6854 88.9947 41.5176 89.0709 41.3329C89.1471 41.1483 89.1861 40.9505 89.1857 40.7508V33.6758C89.1956 23.78 79.8178 15.744 68.2787 15.744C56.7396 15.744 47.3586 23.7669 47.3586 33.6627V45.064C47.3586 54.4415 57.0451 62.0446 68.9948 62.0446C78.2674 62.0446 86.1769 57.4526 89.2547 51.0303C89.3462 50.8372 89.396 50.627 89.4006 50.4134C89.4053 50.1998 89.3647 49.9876 89.2816 49.7907C89.1985 49.5938 89.0748 49.4167 88.9185 49.2708C88.7621 49.125 88.5767 49.0137 88.3744 48.9442L80.8032 46.3465ZM58.4674 32.436C58.4674 29.0707 62.8524 26.3384 68.2623 26.3384C73.6722 26.3384 78.0539 29.0707 78.0539 32.436C78.0544 32.5986 78.0226 32.7598 77.9606 32.9102C77.8986 33.0606 77.8074 33.1973 77.6924 33.3125C77.5774 33.4276 77.4407 33.519 77.2902 33.5814C77.1398 33.6437 76.9785 33.6758 76.8156 33.6758H59.7254C59.3961 33.6758 59.0803 33.5452 58.8475 33.3127C58.6146 33.0802 58.4838 32.7648 58.4838 32.436H58.4674Z" fill="black"/>
<path d="M29.4702 87.5565V108.043C29.4719 108.241 29.4344 108.437 29.3599 108.62C29.2854 108.803 29.1754 108.969 29.0361 109.109C28.8969 109.25 28.7312 109.361 28.5486 109.437C28.366 109.513 28.1702 109.552 27.9723 109.552H13.9369C13.5397 109.552 13.1587 109.395 12.8778 109.114C12.5969 108.834 12.4391 108.453 12.4391 108.056V87.5565C12.4382 87.1592 12.2798 86.7784 11.9985 86.4975C11.7171 86.2166 11.3358 86.0584 10.938 86.0575H1.49781C1.10027 86.0584 0.719301 86.2167 0.4385 86.4977C0.157699 86.7787 -9.51756e-07 87.1595 0 87.5565L0 143.943C0 144.34 0.157805 144.72 0.4387 145.001C0.719595 145.281 1.10057 145.439 1.49781 145.439H10.938C11.3355 145.439 11.7169 145.281 11.9983 145.001C12.2797 144.72 12.4382 144.34 12.4391 143.943V123.456C12.4391 123.059 12.5969 122.679 12.8778 122.399C13.1587 122.118 13.5397 121.96 13.9369 121.96H27.9723C28.3696 121.96 28.7506 122.118 29.0315 122.399C29.3124 122.679 29.4702 123.059 29.4702 123.456V143.943C29.471 144.34 29.6296 144.72 29.911 145.001C30.1924 145.281 30.5737 145.439 30.9713 145.439H40.4016C40.7988 145.439 41.1798 145.281 41.4607 145.001C41.7416 144.72 41.8994 144.34 41.8994 143.943V87.5565C41.8994 87.1595 41.7417 86.7787 41.4609 86.4977C41.1801 86.2167 40.7991 86.0584 40.4016 86.0575H30.9713C30.5734 86.0584 30.1921 86.2166 29.9108 86.4975C29.6295 86.7784 29.471 87.1592 29.4702 87.5565Z" fill="black"/>
<path d="M71.3925 131.732V103.15C71.3925 102.953 71.3537 102.758 71.2782 102.576C71.2027 102.395 71.0921 102.23 70.9527 102.091C70.8132 101.952 70.6477 101.842 70.4656 101.767C70.2835 101.692 70.0884 101.654 69.8914 101.654H50.5118C50.1146 101.654 49.7336 101.812 49.4527 102.092C49.1718 102.372 49.014 102.753 49.014 103.15V111.491C49.014 111.888 49.1717 112.268 49.4525 112.549C49.7333 112.83 50.1143 112.989 50.5118 112.99H57.4688C57.866 112.99 58.247 113.147 58.5279 113.428C58.8088 113.708 58.9666 114.089 58.9666 114.485V131.732C58.9666 132.129 58.8089 132.509 58.5281 132.79C58.2473 133.071 57.8663 133.23 57.4688 133.231H49.1749C48.7777 133.231 48.3967 133.388 48.1158 133.669C47.8349 133.949 47.6771 134.33 47.6771 134.726V144.055C47.6771 144.451 47.8349 144.832 48.1158 145.112C48.3967 145.393 48.7777 145.55 49.1749 145.55H80.3597C80.7569 145.55 81.1379 145.393 81.4188 145.112C81.6997 144.832 81.8575 144.451 81.8575 144.055V134.726C81.8575 134.33 81.6997 133.949 81.4188 133.669C81.1379 133.388 80.7569 133.231 80.3597 133.231H72.8903C72.4928 133.23 72.1118 133.071 71.831 132.79C71.5502 132.509 71.3925 132.129 71.3925 131.732Z" fill="black"/>
<path d="M63.5947 98.6462C67.6383 98.6462 70.9162 95.5784 70.9162 91.7942C70.9162 88.01 67.6383 84.9423 63.5947 84.9423C59.5511 84.9423 56.2731 88.01 56.2731 91.7942C56.2731 95.5784 59.5511 98.6462 63.5947 98.6462Z" fill="black"/>
<path d="M157.901 87.5565V108.043C157.9 108.44 157.742 108.821 157.46 109.101C157.179 109.382 156.798 109.539 156.4 109.539H142.368C141.97 109.539 141.589 109.382 141.308 109.101C141.026 108.821 140.868 108.44 140.867 108.043V87.5565C140.867 87.1595 140.709 86.7787 140.428 86.4977C140.148 86.2167 139.767 86.0584 139.369 86.0575H129.929C129.531 86.0584 129.15 86.2166 128.868 86.4975C128.587 86.7784 128.429 87.1592 128.428 87.5565V143.943C128.429 144.34 128.587 144.72 128.869 145.001C129.15 145.281 129.531 145.439 129.929 145.439H139.369C139.766 145.439 140.147 145.281 140.428 145.001C140.709 144.72 140.867 144.34 140.867 143.943V123.456C140.868 123.059 141.026 122.679 141.308 122.398C141.589 122.118 141.97 121.96 142.368 121.96H156.4C156.798 121.96 157.179 122.118 157.46 122.398C157.742 122.679 157.9 123.059 157.901 123.456V143.943C157.901 144.34 158.059 144.72 158.34 145.001C158.621 145.281 159.002 145.439 159.399 145.439H168.833C169.23 145.439 169.611 145.281 169.893 145.001C170.174 144.72 170.333 144.34 170.334 143.943V87.5565C170.333 87.1592 170.174 86.7784 169.893 86.4975C169.612 86.2166 169.23 86.0584 168.833 86.0575H159.399C159.001 86.0584 158.62 86.2167 158.34 86.4977C158.059 86.7787 157.901 87.1595 157.901 87.5565Z" fill="black"/>
<path d="M246.535 131.732V103.15C246.534 102.753 246.376 102.372 246.094 102.092C245.813 101.811 245.431 101.654 245.034 101.654H225.658C225.26 101.654 224.879 101.812 224.598 102.092C224.318 102.372 224.16 102.753 224.16 103.15V111.491C224.16 111.888 224.317 112.268 224.598 112.549C224.879 112.83 225.26 112.989 225.658 112.99H232.611C233.009 112.99 233.39 113.147 233.672 113.427C233.953 113.708 234.111 114.088 234.112 114.485V131.732C234.111 132.129 233.953 132.51 233.672 132.791C233.39 133.071 233.009 133.23 232.611 133.231H224.334C223.937 133.231 223.556 133.388 223.275 133.669C222.994 133.949 222.836 134.33 222.836 134.726V144.055C222.836 144.451 222.994 144.832 223.275 145.112C223.556 145.393 223.937 145.55 224.334 145.55H255.515C255.913 145.55 256.294 145.393 256.576 145.112C256.857 144.832 257.016 144.452 257.016 144.055V134.726C257.016 134.329 256.857 133.949 256.576 133.668C256.294 133.388 255.913 133.231 255.515 133.231H248.033C247.635 133.23 247.254 133.071 246.973 132.79C246.693 132.509 246.535 132.129 246.535 131.732Z" fill="black"/>
<path d="M238.734 98.6462C242.777 98.6462 246.055 95.5784 246.055 91.7942C246.055 88.01 242.777 84.9423 238.734 84.9423C234.69 84.9423 231.412 88.01 231.412 91.7942C231.412 95.5784 234.69 98.6462 238.734 98.6462Z" fill="black"/>
<path d="M209.234 131.289C208.896 131.171 208.527 131.177 208.193 131.305C207.859 131.433 207.581 131.675 207.408 131.987C206.035 134.513 202.08 136.34 197.416 136.34C191.612 136.34 186.905 133.509 186.905 130.019V128.734C186.905 128.331 187.065 127.945 187.35 127.66C187.636 127.375 188.022 127.215 188.426 127.215H216.093C216.497 127.215 216.884 127.055 217.17 126.769C217.456 126.484 217.617 126.097 217.617 125.693V118.618C217.617 108.722 208.249 100.699 196.697 100.699C185.144 100.699 175.78 108.722 175.78 118.618V130.019C175.78 139.397 185.466 147 197.413 147C206.689 147 214.598 142.408 217.676 135.986C217.767 135.793 217.816 135.583 217.82 135.37C217.825 135.156 217.784 134.945 217.701 134.748C217.618 134.552 217.494 134.375 217.338 134.229C217.182 134.084 216.997 133.972 216.796 133.903L209.234 131.289ZM186.898 117.378C186.898 114.013 191.283 111.281 196.69 111.281C202.097 111.281 206.485 114.013 206.485 117.378C206.485 117.541 206.453 117.702 206.39 117.852C206.328 118.002 206.236 118.139 206.121 118.254C206.006 118.369 205.869 118.46 205.718 118.522C205.568 118.584 205.406 118.615 205.243 118.615H188.153C187.825 118.615 187.51 118.485 187.277 118.253C187.045 118.021 186.915 117.706 186.915 117.378H186.898Z" fill="black"/>
<path d="M110.835 109.539H94.1685C92.641 109.539 91.4028 110.776 91.4028 112.301V119.199C91.4028 120.724 92.641 121.96 94.1685 121.96H110.835C112.362 121.96 113.601 120.724 113.601 119.199V112.301C113.601 110.776 112.362 109.539 110.835 109.539Z" fill="black"/>
</g>
<defs>
<clipPath id="clip0">
<rect width="257" height="147" fill="white"/>
</clipPath>
</defs>
</svg>
