<svg width="22" height="21" viewBox="0 0 22 21" fill="none" xmlns="http://www.w3.org/2000/svg">
<path fill-rule="evenodd" clip-rule="evenodd" d="M0.927979 0.90625H21.1265V20.0971H0.927979V0.90625Z" fill="#290517"/>
<path fill-rule="evenodd" clip-rule="evenodd" d="M0 0V20.95H22V0H0ZM0.92804 0.906234H21.1266V20.0971H0.92804V0.906234V0.906234ZM8.02481 14.5531C8.02481 14.6597 8.02481 14.6597 7.91563 14.6597H6.49628C6.3871 14.6597 6.3871 14.6064 6.3871 14.5531V4.95763C6.3871 4.79771 6.44169 4.79771 6.49628 4.79771H7.91563C7.97022 4.79771 8.02481 4.85102 8.02481 4.90433V14.5531ZM9.66253 11.0347C9.66253 8.90242 11.1365 7.19657 13.4293 7.19657C13.6476 7.19657 13.7568 7.19657 13.9206 7.19657V4.90433C13.9206 4.79771 13.9752 4.79771 14.0298 4.79771H15.5037C15.5583 4.79771 15.6129 4.85102 15.6129 4.85102V13.2204C15.6129 13.4869 15.6129 13.8067 15.6675 14.1266C15.6675 14.1799 15.6675 14.1799 15.6129 14.2332C14.8486 14.6064 13.9752 14.7663 13.2109 14.7663C11.1365 14.7663 9.66253 13.5402 9.66253 11.0347ZM13.9206 8.68919C13.8114 8.63588 13.5931 8.58257 13.3747 8.58257C12.1737 8.58257 11.3548 9.4888 11.3548 10.9281C11.3548 12.634 12.1737 13.2737 13.2655 13.2737C13.4839 13.2737 13.7568 13.2204 13.9206 13.167V8.68919Z" fill="#FF408C"/>
</svg>
