<svg width="13" height="13" viewBox="0 0 13 13" fill="none" xmlns="http://www.w3.org/2000/svg">
<path d="M5.01554 0C6.008 0 6.993 0 7.98546 0C8.00785 0 8.03023 0.00746912 8.05262 0.00746912C8.41826 0.0149382 8.78391 0.0224074 9.14955 0.0373456C9.59728 0.0522838 10.045 0.112037 10.4778 0.239012C11.321 0.492962 11.9777 0.993393 12.4254 1.75524C12.7687 2.33036 12.9105 2.96524 12.9478 3.62252C12.9702 4.0632 12.9776 4.50388 12.9925 4.94456C12.9925 4.97443 13 4.99684 13 5.02672C13 6.00517 13 6.99109 13 7.96955C13 7.99942 12.9925 8.02183 12.9925 8.05171C12.9851 8.31313 12.9851 8.58202 12.9702 8.84344C12.9552 9.27664 12.9328 9.70238 12.8433 10.1281C12.7164 10.7257 12.4702 11.2709 12.0672 11.734C11.4553 12.4436 10.6569 12.8021 9.74652 12.9066C9.34356 12.9515 8.92569 12.9739 8.52273 12.9813C7.06762 13.0037 5.61251 13.0112 4.14993 12.9739C3.76936 12.9664 3.3888 12.944 3.01569 12.8768C2.48588 12.7797 1.97846 12.6004 1.53073 12.2792C0.694974 11.6817 0.254709 10.8452 0.105467 9.8443C0.0383081 9.38868 0.0233839 8.93306 0.0159218 8.47745C0.000997547 6.93881 -0.0213888 5.40017 0.0457702 3.86153C0.0606945 3.43579 0.105467 3.01752 0.224861 2.61419C0.471111 1.72537 0.978534 1.03074 1.77698 0.567653C2.3441 0.231543 2.97838 0.0896294 3.62758 0.0522838C4.06039 0.0298765 4.50065 0.0224074 4.93345 0.00746912C4.9633 0.00746912 4.99315 0 5.01554 0ZM8.85853 11.8087C9.22417 11.8012 9.58981 11.7788 9.948 11.6966C10.448 11.5771 10.8733 11.3456 11.2016 10.9497C11.4927 10.6061 11.6419 10.2028 11.7165 9.76214C11.7837 9.37374 11.7986 8.98535 11.8061 8.59695C11.8284 7.09566 11.8434 5.59437 11.7986 4.09308C11.7911 3.74203 11.7613 3.39098 11.6867 3.0474C11.5598 2.50962 11.3061 2.06148 10.8658 1.72537C10.5375 1.47142 10.1644 1.34444 9.76144 1.27722C9.37341 1.21 8.98538 1.19506 8.58989 1.18759C7.09001 1.16518 5.59758 1.15771 4.0977 1.20253C3.74698 1.21 3.39626 1.23987 3.053 1.31456C2.51573 1.44154 2.06054 1.70296 1.72475 2.14364C1.4785 2.46481 1.35164 2.84573 1.28448 3.23413C1.21732 3.61505 1.2024 4.00345 1.19494 4.38437C1.17255 5.89313 1.15763 7.4019 1.2024 8.91066C1.20986 9.26171 1.23971 9.60528 1.31433 9.94886C1.44119 10.4941 1.70236 10.9423 2.15009 11.2858C2.47096 11.5323 2.84406 11.6518 3.23956 11.7265C3.64997 11.8012 4.06785 11.8087 4.47827 11.8161C5.15732 11.8236 8.075 11.8236 8.85853 11.8087Z" fill="black"/>
<path d="M3 6.49609C3 4.56425 4.57383 3 6.5 3C8.434 3 10 4.57207 10 6.50391C10 8.42793 8.434 9.99218 6.5 10C4.57383 9.99218 3 8.42011 3 6.49609ZM8.77069 6.49609C8.77069 5.24469 7.7528 4.22793 6.5 4.22793C5.2472 4.22793 4.22931 5.23687 4.22148 6.48827C4.22148 7.73967 5.23937 8.76425 6.49217 8.76425C7.7528 8.76425 8.77069 7.74749 8.77069 6.49609Z" fill="black"/>
<path d="M10.0049 2.00015C10.5598 2.00015 11 2.44988 11 3.00486C11 3.55984 10.5503 4 9.99529 4C9.44031 4 8.99058 3.5407 9.00015 2.99529C9.00972 2.43074 9.45945 1.99058 10.0049 2.00015Z" fill="black"/>
</svg>
