<svg width="22" height="21" viewBox="0 0 22 21" fill="none" xmlns="http://www.w3.org/2000/svg">
<g clip-path="url(#clip0)">
<path d="M21.072 20.046C21.072 13.6483 21.072 7.30392 21.072 0.90625C14.3573 0.90625 7.64268 0.90625 0.928043 0.90625C0.928043 7.30392 0.928043 13.6483 0.928043 20.046C7.64268 20.046 14.3573 20.046 21.072 20.046Z" fill="#1C1C1C"/>
<path d="M22 20.9524C14.6849 20.9524 7.31514 20.9524 0 20.9524C0 13.9683 0 6.98413 0 0C7.31514 0 14.6849 0 22 0C22 6.98413 22 13.9683 22 20.9524ZM21.072 20.046C21.072 13.6484 21.072 7.30401 21.072 0.906337C14.3573 0.906337 7.64268 0.906337 0.92804 0.906337C0.92804 7.30401 0.92804 13.6484 0.92804 20.046C7.64268 20.046 14.3573 20.046 21.072 20.046Z" fill="#BFBFBF"/>
<path d="M6.33251 14.7678C6.49628 14.7678 6.66005 14.7678 6.87841 14.7678C6.87841 15.6742 6.87841 16.5272 6.87841 17.4335C6.71464 17.4335 6.55087 17.4335 6.33251 17.4335C6.33251 16.5805 6.33251 15.6742 6.33251 14.7678Z" fill="#BFBFBF"/>
<path d="M6.933 14.0748C6.933 14.2347 6.82382 14.3947 6.60546 14.3947C6.44169 14.3947 6.27792 14.288 6.27792 14.0748C6.27792 13.9148 6.44169 13.7549 6.60546 13.7549C6.76923 13.7549 6.933 13.8615 6.933 14.0748Z" fill="#BFBFBF"/>
<path d="M15.1762 13.7548C15.1762 14.2346 15.1762 14.7145 15.1762 15.1943C14.9032 14.8211 14.5757 14.6612 14.139 14.7145C13.7022 14.7678 13.4293 15.0344 13.2655 15.4076C13.1017 15.8341 13.1017 16.2606 13.2655 16.6871C13.3747 17.007 13.5931 17.2202 13.9752 17.3269C14.0298 17.3269 14.139 17.3802 14.1935 17.3802C14.2481 17.3802 14.3573 17.3802 14.4119 17.3802C14.7395 17.3269 14.9578 17.2202 15.1762 16.9003C15.1762 17.0603 15.1762 17.1669 15.1762 17.3269C15.3945 17.3269 15.5583 17.3269 15.7221 17.3269C15.7221 16.1006 15.7221 14.8744 15.7221 13.6482C15.5583 13.7548 15.34 13.7548 15.1762 13.7548ZM15.067 16.6338C14.9578 16.9003 14.7395 17.007 14.4665 17.007C14.1935 17.007 13.9752 16.9003 13.866 16.6871C13.6476 16.3139 13.6476 15.9407 13.866 15.5675C13.9752 15.3009 14.1935 15.1943 14.4665 15.1943C14.7395 15.1943 14.9578 15.3542 15.067 15.5675C15.1216 15.7808 15.1216 16.4738 15.067 16.6338Z" fill="#BFBFBF"/>
<path d="M12.7196 17.4335C12.7196 16.7938 12.7196 16.154 12.7196 15.5142C12.7196 15.2477 12.5558 15.0344 12.3375 14.8745C11.9553 14.6079 11.2457 14.6612 10.8635 14.9278C10.6452 15.0877 10.536 15.2477 10.536 15.5142C10.6998 15.5142 10.8635 15.5142 10.9727 15.5142C11.0273 15.5142 11.0273 15.4609 11.0819 15.4609C11.2457 15.1944 11.5732 15.0877 11.9007 15.1944C12.1737 15.301 12.2283 15.5142 12.1737 15.8341C12.1191 15.8341 12.0645 15.8341 12.0099 15.8341C11.6824 15.8874 11.3002 15.8874 10.9727 15.9941C10.5906 16.1007 10.4268 16.314 10.4268 16.6871C10.4268 17.0603 10.6452 17.3269 10.9727 17.4335C11.0273 17.4335 11.1365 17.4869 11.1911 17.4869C11.3002 17.4869 11.3548 17.4869 11.464 17.4869C11.737 17.4335 12.0099 17.3269 12.1737 17.007C12.1737 17.007 12.1737 17.007 12.2283 17.0603C12.2283 17.167 12.2283 17.3269 12.2283 17.4335C12.3921 17.4335 12.5558 17.4335 12.7196 17.4335ZM11.2457 17.007C11.0819 16.9537 10.9727 16.8471 10.9727 16.6871C10.9727 16.5272 11.0819 16.3673 11.2457 16.3673C11.5186 16.314 11.8462 16.314 12.1737 16.2606C12.2829 16.9004 11.6278 17.167 11.2457 17.007Z" fill="#BFBFBF"/>
<path d="M9.00745 13.7549C8.51613 13.7549 8.07941 13.7549 7.58809 13.7549H7.5335C7.5335 14.9811 7.5335 16.2073 7.5335 17.4335C7.75186 17.4335 7.91563 17.4335 8.07941 17.4335C8.07941 17.007 8.07941 16.5805 8.07941 16.2073C8.134 16.2073 8.18859 16.2073 8.29777 16.2073C8.57072 16.2073 8.78908 16.2073 9.06204 16.2073C9.71712 16.154 10.2084 15.6742 10.2084 14.9811C10.2084 14.288 9.71712 13.8082 9.00745 13.7549ZM9.60794 15.141C9.55335 15.4609 9.33499 15.6742 8.95285 15.7275C8.89826 15.7275 8.84367 15.7275 8.73449 15.7275C8.51613 15.7275 8.29777 15.7275 8.07941 15.7275C8.07941 15.2477 8.07941 14.7678 8.07941 14.2347C8.46154 14.2347 8.78908 14.1814 9.17122 14.288C9.49876 14.448 9.66253 14.7145 9.60794 15.141Z" fill="#BFBFBF"/>
<path d="M13.5931 7.89036C13.5931 7.14396 13.9206 6.61082 14.6303 6.18431C14.2481 5.65117 13.6476 5.33129 12.8834 5.27797C12.1737 5.22466 11.3548 5.70449 11.0819 5.70449C10.7543 5.70449 10.0447 5.33129 9.49876 5.33129C8.35236 5.33129 7.15137 6.23763 7.15137 7.99699C7.15137 8.53013 7.26055 9.06326 7.42432 9.64972C7.69727 10.3961 8.62531 12.2088 9.60794 12.1555C10.0993 12.1555 10.4814 11.7823 11.1911 11.7823C11.8462 11.7823 12.1737 12.1555 12.7742 12.1555C13.7568 12.1555 14.6303 10.5027 14.9032 9.75635C13.5385 9.11658 13.5931 7.94367 13.5931 7.89036ZM12.4467 4.63821C12.9926 3.99844 12.938 3.41199 12.938 3.19873C12.4467 3.25204 11.8462 3.51861 11.5186 3.89181C11.1365 4.26501 10.9727 4.79815 10.9727 5.33129C11.5732 5.33129 12.0645 5.06472 12.4467 4.63821Z" fill="#BFBFBF"/>
</g>
<defs>
<clipPath id="clip0">
<rect width="22" height="20.9524" fill="white"/>
</clipPath>
</defs>
</svg>
