<svg width="22" height="21" viewBox="0 0 22 21" fill="none" xmlns="http://www.w3.org/2000/svg">
<g clip-path="url(#clip0)">
<path d="M22 20.9524C14.6849 20.9524 7.31514 20.9524 0 20.9524C0 13.9683 0 6.98413 0 0C7.31514 0 14.6849 0 22 0C22 6.98413 22 13.9683 22 20.9524ZM21.072 20.046C21.072 13.6484 21.072 7.30401 21.072 0.906337C14.3573 0.906337 7.64268 0.906337 0.92804 0.906337C0.92804 7.30401 0.92804 13.6484 0.92804 20.046C7.64268 20.046 14.3573 20.046 21.072 20.046Z" fill="#00C8FF"/>
<path d="M21.072 20.046C14.3573 20.046 7.64268 20.046 0.92804 20.046C0.92804 13.6483 0.92804 7.30392 0.92804 0.90625C7.64268 0.90625 14.3573 0.90625 21.072 0.90625C21.072 7.30392 21.072 13.6483 21.072 20.046ZM6.933 11.0892C6.98759 11.0892 6.98759 11.0892 6.98759 11.0892C7.04218 11.0892 7.09678 11.0892 7.15137 11.0892C7.91563 11.1425 8.6799 11.0892 9.38958 10.8226C10.3176 10.5028 10.9727 9.91631 11.2457 8.95666C11.464 8.26357 11.464 7.57049 11.3002 6.87741C11.0819 6.02439 10.536 5.38462 9.71712 5.06474C9.22581 4.85148 8.73449 4.74485 8.24318 4.74485C7.36973 4.74485 6.44169 4.74485 5.56824 4.79817C5.34988 4.79817 5.34988 4.85148 5.34988 5.01142C5.34988 7.30392 5.34988 9.59642 5.34988 11.8889C5.34988 12.7419 5.34988 13.595 5.34988 14.448C5.34988 14.6079 5.34988 14.6079 5.51365 14.6079C5.95037 14.6079 6.33251 14.6079 6.76923 14.6079C6.933 14.6079 6.933 14.6079 6.933 14.448C6.933 13.3817 6.933 12.3154 6.933 11.2492C6.933 11.1958 6.933 11.1425 6.933 11.0892ZM12.3375 13.595C12.3375 13.8082 12.3375 14.0215 12.3375 14.2347C12.3375 14.2881 12.3375 14.3414 12.4467 14.3947C12.5558 14.448 12.665 14.5013 12.7742 14.5546C13.4839 14.7679 14.1935 14.8212 14.9578 14.7146C15.2854 14.6612 15.6129 14.5546 15.8859 14.3947C16.5409 14.0215 16.8685 13.4883 16.9231 12.7419C16.9777 12.0489 16.7593 11.4091 16.2134 10.9826C15.8859 10.716 15.5583 10.5561 15.1762 10.3428C14.8486 10.1829 14.5211 9.96962 14.1935 9.75636C14.0844 9.64974 13.9752 9.54311 13.9206 9.38317C13.8114 9.1166 13.9752 8.79671 14.2481 8.69009C14.4665 8.58346 14.7395 8.58346 14.9578 8.58346C15.4491 8.58346 15.9404 8.69009 16.3772 8.95666C16.4864 9.00997 16.5409 8.95666 16.5409 8.85003C16.5409 8.42352 16.5409 8.05032 16.5409 7.62381C16.5409 7.51718 16.4864 7.46387 16.4318 7.46387C16.3772 7.46387 16.3226 7.41055 16.268 7.41055C15.7221 7.25061 15.1762 7.25061 14.6303 7.25061C14.3027 7.25061 13.9752 7.30392 13.6476 7.46387C12.0099 8.05032 11.9007 10.0762 13.0471 10.9826C13.3201 11.1958 13.6476 11.4091 13.9752 11.569C14.2481 11.729 14.5757 11.8889 14.8486 12.0489C14.9578 12.1555 15.067 12.2621 15.1762 12.3687C15.3945 12.6886 15.2854 13.1151 14.9578 13.2751C14.794 13.3817 14.5757 13.3817 14.3573 13.435C13.6476 13.435 13.0471 13.2751 12.4467 12.9552C12.3375 12.9019 12.3375 12.9019 12.3375 13.0085C12.3375 13.1685 12.3375 13.3817 12.3375 13.595Z" fill="#001D26"/>
<path d="M6.933 11.0895C6.933 11.1428 6.933 11.1961 6.933 11.2494C6.933 12.3157 6.933 13.382 6.933 14.4483C6.933 14.6082 6.933 14.6082 6.76923 14.6082C6.3325 14.6082 5.95037 14.6082 5.51364 14.6082C5.34987 14.6082 5.34987 14.6082 5.34987 14.4483C5.34987 13.5952 5.34987 12.7422 5.34987 11.8892C5.34987 9.59669 5.34987 7.30419 5.34987 5.01169C5.34987 4.79843 5.34987 4.79843 5.56823 4.79843C6.44168 4.79843 7.36972 4.74512 8.24317 4.74512C8.73449 4.74512 9.2258 4.85175 9.71712 5.065C10.536 5.4382 11.0819 6.02465 11.3002 6.87768C11.464 7.57076 11.464 8.26384 11.2457 8.95692C10.9727 9.86326 10.3176 10.503 9.38958 10.8229C8.6799 11.0895 7.91563 11.1428 7.15136 11.0895C7.09677 11.0895 7.04218 11.0895 6.98759 11.0895C6.98759 11.0895 6.98759 11.0895 6.933 11.0895ZM6.933 7.94395C6.933 8.47709 6.933 9.01023 6.933 9.54337C6.933 9.65 6.98759 9.70332 7.04218 9.70332C7.31513 9.70332 7.5335 9.70332 7.80645 9.70332C8.02481 9.70332 8.29776 9.65 8.51613 9.59669C9.11662 9.43675 9.55335 9.11686 9.71712 8.47709C9.77171 8.15721 9.8263 7.89064 9.77171 7.57076C9.71712 7.03762 9.44417 6.61111 8.95285 6.39785C8.73449 6.29122 8.46154 6.18459 8.18858 6.18459C7.80645 6.18459 7.4789 6.18459 7.09677 6.18459C6.98759 6.18459 6.98759 6.23791 6.98759 6.29122C6.98759 6.82436 6.933 7.41081 6.933 7.94395Z" fill="#00C8FF"/>
<path d="M12.3375 13.5949C12.3375 13.3817 12.3375 13.1684 12.3375 12.9552C12.3375 12.8485 12.3375 12.7952 12.4467 12.9019C13.0471 13.2751 13.6476 13.435 14.3573 13.3817C14.5757 13.3817 14.7395 13.3284 14.9578 13.2217C15.2854 13.0618 15.3945 12.6353 15.1762 12.3154C15.067 12.2088 14.9578 12.1021 14.8486 11.9955C14.5757 11.8356 14.3027 11.6756 13.9752 11.5157C13.6476 11.3558 13.3201 11.1425 13.0471 10.9292C11.9007 10.0762 12.0099 8.05029 13.6476 7.41052C13.9752 7.30389 14.3027 7.25058 14.6303 7.19727C15.1762 7.19727 15.7221 7.19727 16.268 7.35721C16.3226 7.35721 16.3772 7.41052 16.4318 7.41052C16.5409 7.46384 16.5409 7.51715 16.5409 7.57046C16.5409 7.99697 16.5409 8.37017 16.5409 8.79668C16.5409 8.90331 16.4864 8.95663 16.3772 8.90331C15.9404 8.63674 15.4491 8.53011 14.9578 8.53011C14.6849 8.53011 14.4665 8.53011 14.2481 8.63674C13.9752 8.79668 13.8114 9.06325 13.9206 9.32982C13.9752 9.48977 14.0844 9.59639 14.1935 9.70302C14.5211 9.91628 14.8486 10.0762 15.1762 10.2895C15.5583 10.5027 15.8859 10.6627 16.2134 10.9292C16.7593 11.4091 16.9777 11.9955 16.9231 12.6886C16.8685 13.3817 16.5409 13.9681 15.8859 14.3413C15.6129 14.5013 15.2854 14.6079 14.9578 14.6612C14.2481 14.7678 13.4839 14.7145 12.7742 14.5013C12.665 14.448 12.5558 14.3946 12.4467 14.3413C12.3921 14.288 12.3375 14.288 12.3375 14.1814C12.3375 14.0215 12.3375 13.8082 12.3375 13.5949Z" fill="#00C8FF"/>
<path d="M6.933 7.94384C6.933 7.4107 6.933 6.87756 6.933 6.34442C6.933 6.23779 6.933 6.23779 7.04219 6.23779C7.42432 6.23779 7.75186 6.23779 8.134 6.23779C8.40695 6.23779 8.6799 6.34442 8.89826 6.45105C9.38958 6.71762 9.66253 7.09082 9.71712 7.62396C9.77171 7.94384 9.77171 8.26372 9.66253 8.53029C9.49876 9.17006 9.06204 9.48994 8.46154 9.64989C8.24318 9.7032 8.02482 9.7032 7.75186 9.75651C7.47891 9.75651 7.26055 9.75651 6.9876 9.75651C6.87841 9.75651 6.87841 9.7032 6.87841 9.59657C6.9876 9.01012 6.933 8.47698 6.933 7.94384Z" fill="#001D26"/>
</g>
<defs>
<clipPath id="clip0">
<rect width="22" height="20.9524" fill="white"/>
</clipPath>
</defs>
</svg>
